<svg width="1280" height="1280" viewBox="0 0 1280 1280" fill="none" xmlns="http://www.w3.org/2000/svg">
<g clip-path="url(#clip0_466_2)">
<path d="M0 640V0H640H1280V640V1280H640H0V640ZM293 918.5C306.5 916.3 328.5 911.3 335.5 908.9C362.1 899.6 391.5 878.5 405.2 858.8C420.5 836.9 427.5 815.6 427.3 791.5C427.2 768.7 420.1 748.5 405.6 729.1C400.8 722.7 389.7 711.8 383.6 707.5C369.6 697.7 366.1 695.5 356.8 690.6C342.6 683.1 297.1 665 292.4 665C289.4 665 251.4 652 245.5 648.9C236.3 644.1 226.1 636 223.3 631.3C217.5 621.3 219.8 609.5 228.7 604.3C237 599.5 244.8 598 262.2 598C278.5 598 285 599.1 297.5 603.7C306 606.9 306.4 608.2 307 630.8L307.5 650.5L357 650.8C384.2 650.9 408 650.8 409.8 650.5L413.2 649.9L412.8 615.7C412.3 577.6 411.7 573.4 404.6 558.5C399 546.9 391.1 538.7 374.4 527.4C360 517.6 334.9 508.1 309 502.7C291.5 499 287 498.6 262.5 498.5C238.9 498.5 231 499.1 218.5 502C216.3 502.5 211.4 503.6 207.5 504.5C194.3 507.5 184.8 511 167.7 518.9C160 522.5 153.9 526.3 140 536.2C131.5 542.3 114.5 563.1 112.7 569.5C112.4 570.6 110.6 575.4 108.6 580.1C92.6 618.4 102.6 666.8 132.5 696.5C142.4 706.4 162.1 720 179.1 728.5C186.1 732.1 212.5 743 214 743C215.7 743 281.3 767.8 287 770.5C295.3 774.6 301.7 779.7 304.5 784.4C306.5 787.9 307 790 307 795.9C307 804 305.7 807.4 300.9 811.4C290.4 820.2 273.3 823.7 246 822.4C223.1 821.4 209.9 817.8 199.8 809.8C192.8 804.3 192 801.3 192 779.3V760H139H85.9L86.3 793.3L86.6 826.5L90.2 836.8C97.9 858.5 108.3 872 128.8 886.3C145.4 898 172.6 910.2 187 912.4C189.5 912.8 198.1 914.5 206.2 916.1C214.2 917.7 224.6 919.4 229.2 919.9C241.3 921.3 281.5 920.4 293 918.5ZM691.3 909.6C683.6 905.9 663.5 893.1 656 887.2C635.8 871 623.8 856.3 613.4 835C599.6 806.9 595.7 789.7 595.7 757.5C595.7 729.7 596.5 725.1 608.3 684.5C611.4 674.1 614.2 663.7 614.5 661.5C615.1 657.9 619.5 640.7 622 632C622.6 630.1 626.2 616.8 630 602.5C640.4 564 644.9 547.4 647.6 538.5C652.5 521.6 656 507.7 655.4 507.1C655.1 506.8 612 506.4 559.7 506.2C483.2 506 464 506.2 462 507.3L459.5 508.6V554.8C459.5 594.8 459.7 601.2 461 602C461.8 602.6 474.3 603 489.7 603C515.6 603 517 603.1 518 604.9C519.4 607.6 519.4 811.4 518 814.1C517 815.9 515.6 816 491.7 816C473.3 816 466.1 816.3 465.2 817.2C463.4 819 463.5 911.6 465.3 912.3C465.9 912.6 518.7 912.9 582.5 912.9L698.4 913L691.3 909.6ZM919.9 910.1C920.9 908.8 926.9 899.4 933.1 889.3C939.4 879.2 946.4 867.9 948.8 864.2C951.1 860.5 953.9 855.9 954.9 854C958 847.9 988.1 800.5 989.3 799.8C992 798.1 998.1 799 1000.5 801.5C1001.9 802.8 1003 804.4 1003 804.9C1003 805.5 1007.1 812.4 1012.1 820.2C1017.2 828.1 1023 837.2 1025 840.5C1027.1 843.8 1032.4 852.3 1036.9 859.3C1041.3 866.4 1045 872.4 1045 872.6C1045 873.1 1065.3 905.1 1067.9 908.7C1068.8 909.9 1070.5 911.3 1071.8 911.9C1074.9 913.4 1189.3 913.4 1192.1 912C1193.9 911 1194 909.4 1194 864.5C1194 819.6 1193.9 818 1192.1 817C1190.9 816.4 1180.7 816 1165.9 816H1141.7L1138.1 812.2C1136.1 810.1 1131.8 804.4 1128.6 799.4C1121.1 788.2 1105.2 765 1094.6 750.1C1090.1 743.8 1085.2 736.5 1083.5 733.9C1081.9 731.2 1077.4 724.6 1073.7 719.1C1066.4 708.5 1064.7 703.3 1067 698.9C1068.5 696 1089.2 665.1 1103.5 644.5C1109.2 636.3 1117.8 623.8 1122.5 616.7C1128.1 608.5 1132 603.8 1133.3 603.5C1134.5 603.2 1148 602.9 1163.2 602.8C1178.4 602.6 1191.1 602.2 1191.4 601.9C1192.2 601.2 1192.2 507.9 1191.5 507.1C1191.1 506.8 1163 506.5 1128.9 506.5H1067L1064.5 509C1062.3 511.2 1059.9 515 1047 536C1045.1 539 1034.5 556.2 1023.3 574.1C1012.2 592 1002.8 607.5 1002.4 608.4C1001.9 609.8 1000.7 610 996.3 609.8L990.8 609.5L981.4 594.5C969.2 574.7 955 551.4 952.6 547C951.5 545.1 948.3 539.9 945.5 535.5C942.6 531.1 938 523.6 935.2 518.9C932.3 514.2 929.2 509.6 928.3 508.7C926.7 507.3 918.4 507.1 850.8 506.8C794 506.6 774.8 506.8 773.9 507.7C773.3 508.3 771.3 514.8 769.4 522.2C763.9 544.5 755.3 578.1 753.5 584.5C750.4 595.5 750 597.5 749.1 602.3C748.2 607.3 748.4 607.5 752.6 606C756.6 604.4 779.3 602 789.5 602C805.7 602.1 825.6 606.1 838.9 612.1C842.4 613.7 845.7 615 846.3 615C847.8 615 858.7 621.8 868.1 628.6C881.5 638.4 894.5 652.9 904.9 669.7C912.6 682.2 916.4 690.5 920.8 704.5C927.5 725.9 929 735.4 929 756.2C929 775 926.8 790.4 922 806.5C920.8 810.4 919.4 815.2 918.9 817.4C917.6 822.5 909.4 839 903.8 847.6C896.5 859 885.4 872 876.2 880.3C865.3 890.1 846.3 903 834.5 908.6L825.5 912.9L871.8 912.7L918.1 912.5L919.9 910.1ZM776.5 807C790.3 802.3 805.3 788.3 810.5 775.2C814.5 765.5 815 753.7 812 743.9C809.2 734.7 806.1 729.3 799.3 722C785.8 707.4 768.6 702 749.8 706.4C740.4 708.6 735.1 711.3 728.3 717.5C713.3 731.1 706.1 751.4 710.4 767.8C715 784.8 726.5 798.3 742.7 805.4C753.9 810.3 765.3 810.9 776.5 807ZM659.8 466.2C660.8 465.5 661 454 660.8 411.9L660.5 358.5H588.5H516.5L516.2 411.5C516.1 440.7 516.2 465.1 516.5 465.8C516.8 466.7 532 467 587.7 467C626.6 467 659.1 466.6 659.8 466.2ZM816.3 436.3C814 436.1 809.9 436.1 807.3 436.3C804.7 436.5 806.6 436.6 811.5 436.6C816.5 436.6 818.6 436.5 816.3 436.3ZM985.3 436.3C982.9 436.1 979.1 436.1 976.8 436.3C974.4 436.5 976.3 436.7 981 436.7C985.7 436.7 987.6 436.5 985.3 436.3ZM1152.3 436.3C1150 436.1 1145.9 436.1 1143.3 436.3C1140.7 436.5 1142.6 436.6 1147.5 436.6C1152.5 436.6 1154.6 436.5 1152.3 436.3ZM872.3 402.5L872.5 370.5L890.5 370L908.5 369.4L889.5 369.5H870.5L870.2 401.5C870 430 870.4 438.8 871.6 435.5C871.9 434.9 872.1 420 872.3 402.5ZM918.7 422.7C918.5 420.4 918.4 422.6 918.4 427.5C918.4 432.5 918.5 434.3 918.7 431.7C918.9 429.1 918.9 425 918.7 422.7ZM1045 421.3C1045.1 413.1 1045 398.3 1045 388.3L1044.9 370L1062.2 369.7L1079.5 369.4L1061.5 369.5H1043.5L1043.2 402.8C1043.1 424.7 1043.3 436 1044 436C1044.6 436 1045 430.5 1045 421.3ZM1006.8 397.3C1007 383.4 1006.9 371.3 1006.4 370.3C1005.9 369.2 1005.3 380 1005 397C1004.6 412.7 1004.1 426.4 1003.7 427.5C1003.3 428.6 1003.7 427.9 1004.7 426C1006 423.1 1006.4 418.2 1006.8 397.3ZM836.9 414.8C837 406.5 836.9 406 834.9 406C833 406 833 406.1 834.6 407.7C836 409.2 836.2 410.8 835.7 418.5C835.4 423.7 835.5 426.7 836 425.5C836.5 424.4 836.9 419.6 836.9 414.8ZM957 398C957 380 956.6 370 956 370C955.4 370 955 378.5 955 393.4C955 414.3 955.6 426 956.6 426C956.8 426 957 413.4 957 398ZM1174.8 402.5C1174.9 382.8 1174.3 385 1173.7 406.5C1173.5 415.9 1173.7 422.2 1174 420.5C1174.4 418.9 1174.8 410.8 1174.8 402.5ZM1121.9 401.3C1121.9 388.7 1121.5 381.3 1121 382.5C1119.4 386.2 1120 422 1121.6 422C1121.8 422 1122 412.7 1121.9 401.3ZM784.7 393.3C784.6 388.4 784.4 392.4 784.4 402C784.4 411.6 784.6 415.6 784.7 410.8C784.9 405.9 784.9 398.1 784.7 393.3ZM1090.9 388.1C1091 379.4 1090.4 380.7 1089.7 390.5C1089.4 395.1 1089.6 397.7 1090 396.5C1090.5 395.4 1090.9 391.6 1090.9 388.1ZM837 381.8C837 380.5 836.5 378.8 836 378C835.3 376.9 835 377.5 835 380.3C835 382.3 835.5 384 836 384C836.6 384 837 383 837 381.8ZM815.3 368.3C814 368.1 811.8 368.1 810.3 368.3C808.7 368.5 809.8 368.7 812.5 368.7C815.3 368.7 816.5 368.5 815.3 368.3ZM1150.3 368.3C1149 368.1 1147 368.1 1145.8 368.3C1144.5 368.5 1145.5 368.7 1148 368.7C1150.5 368.7 1151.5 368.5 1150.3 368.3Z" fill="black"/>
<path d="M226.2 922.9C221.6 922.4 211.2 920.7 203.2 919.1C195.1 917.5 186.5 915.8 184 915.4C169.1 913.1 142 900.8 124.8 888.5C105 874.4 93.5004 859.6 88.0004 841C86.7004 836.9 85.1004 832.3 84.3004 830.7C83.2004 828.5 82.9004 820.9 82.9004 792.7V757.5L139 757.2L195 757V776.2C195 798.3 195.8 801.3 202.8 806.8C212.3 814.4 223.3 817.7 243 819C269.8 820.8 287.2 817.5 297.9 808.4C302.1 804.9 304 801 304 795.9C304 787.7 297.1 779.9 284 773.5C278.3 770.8 212.7 746 211 746C209.5 746 183.1 735.1 176.1 731.5C159.1 723 139.4 709.4 129.5 699.5C121.1 691.2 113.3 680 108.7 669.5C100.4 650.6 98.0004 639.4 98.0004 619C98.0004 602.5 100.3 589.8 105.6 577.1C107.6 572.4 109.4 567.6 109.7 566.5C111.5 560.1 128.5 539.3 137 533.2C150.9 523.3 157 519.5 164.7 515.9C181.8 508 191.3 504.5 204.5 501.5C208.4 500.6 213.3 499.5 215.5 499C228.2 496.1 235.9 495.5 262 495.5C293.7 495.5 301.9 496.5 328.5 503.7C353.3 510.3 370 518.4 388.5 532.5C401.1 542.2 408.4 553.4 413.1 570.5C415.2 578 415.4 581 415.8 615.7L416.2 652.9L412.8 653.5C411 653.8 385.9 653.9 357 653.8L304.5 653.5L304 633.8C303.4 611.2 303 609.9 294.5 606.7C282.7 602.3 275.3 601 262.2 601C241.9 601 229.3 605.5 225.1 614.4C222.6 619.4 222.9 622.2 226.5 628.5C229.1 633 239.4 641.2 248.5 645.9C254.4 649 292.4 662 295.4 662C300.1 662 345.6 680.1 359.8 687.6C369.1 692.5 372.6 694.7 386.6 704.5C392.7 708.8 403.8 719.7 408.6 726.1C423.8 746.4 430.2 765.7 430.4 791.5C430.5 818.7 424.2 839 408.2 861.8C394.5 881.5 365.1 902.6 338.5 911.9C331.5 914.3 309.7 919.3 296 921.5C284.6 923.4 238.8 924.4 226.2 922.9Z" fill="white"/>
<path d="M462.3 915.3C460.5 914.6 460.4 816 462.2 814.2C463.1 813.3 470.3 813 488.7 813C512.6 813 514 812.9 515 811.1C516.4 808.4 516.4 610.6 515 607.9C514 606.1 512.6 606 486.7 606C471.3 606 458.8 605.6 458 605C456.7 604.2 456.5 597.5 456.5 554.8V505.6L459 504.3C461 503.3 481.6 503 559.6 503.1C614.3 503.1 658.2 503.5 659 504C660.7 505 660 507.9 652.5 534.5C647.1 553.8 641.8 573.1 633 605.5C629.2 619.8 625.6 633.1 625 635C622.5 643.7 618.1 660.9 617.5 664.5C617.2 666.7 614.4 677.1 611.3 687.5C599.8 727 598.7 733 598.7 757.5C598.8 786.6 603.1 804.8 616.4 832C626.8 853.3 638.8 868 659 884.2C672.5 894.9 702.5 912 707.9 912C710 912 712.4 914.3 711.3 915.3C710.6 916.1 464.1 916.1 462.3 915.3Z" fill="white"/>
<path d="M811.501 915.1C810.901 914 812.801 912.8 818.501 911C833.201 906.3 857.701 891.2 873.201 877.3C882.401 869 893.501 855.9 900.801 844.6C906.401 836 914.601 819.5 915.901 814.4C916.401 812.2 917.801 807.4 919.001 803.5C926.801 777.6 928.101 751.3 922.901 725.5C921.001 716.3 913.801 694.6 910.301 687.5C898.801 664.6 882.201 644.2 865.101 631.6C855.701 624.8 844.801 618 843.301 618C842.701 618 839.401 616.7 835.901 615.1C823.401 609.5 802.601 605 789.001 605C778.601 605.1 759.501 607.7 752.401 610C748.601 611.3 745.401 611.8 745.001 611.4C744.501 610.9 744.701 607 745.501 602.5C747.001 594.4 747.501 592.2 750.501 581.5C752.301 575.1 760.901 541.5 766.401 519.2C768.301 511.8 770.301 505.3 770.901 504.7C771.801 503.8 791.801 503.6 850.701 503.7C922.601 504 929.501 504.1 931.201 505.7C932.201 506.6 935.301 511.2 938.201 515.9C941.001 520.6 945.601 528.1 948.501 532.5C951.301 536.9 954.501 542.1 955.601 544C957.901 548.4 972.101 571.7 984.401 591.5C992.001 603.7 994.201 606.6 996.201 606.8C997.901 607 999.001 606.5 999.401 605.4C999.801 604.5 1009.2 589 1020.3 571.1C1031.5 553.2 1042.1 536 1044 533C1056.9 512 1059.3 508.2 1061.5 506L1064 503.5H1128.9C1164.6 503.5 1194.2 503.8 1194.6 504.2C1195.4 505 1195.2 604.2 1194.4 605C1194.1 605.3 1181.4 605.6 1166.2 605.8C1151 605.9 1137.5 606.2 1136.3 606.5C1135 606.8 1131.1 611.5 1125.5 619.7C1120.8 626.8 1112.2 639.3 1106.5 647.5C1092.8 667.3 1071.5 699 1070.2 701.6C1068.9 704.2 1070.6 707.6 1079.2 720C1082.4 724.7 1087.9 732.6 1091.3 737.7C1094.7 742.8 1104.3 756.7 1112.5 768.7C1120.8 780.7 1129.8 793.8 1132.5 797.9C1135.3 802 1139.1 807.1 1141.1 809.2L1144.7 813H1168.9C1183.7 813 1193.9 813.4 1195.1 814C1196.9 815 1197 816.7 1197 864.5C1197 912.3 1196.9 914 1195.1 915C1192.3 916.4 1071.9 916.4 1068.8 914.9C1067.5 914.3 1065.8 912.9 1064.9 911.7C1062.3 908.1 1042 876.1 1042 875.6C1042 875.4 1038.3 869.4 1033.9 862.3C1029.4 855.3 1024.1 846.8 1022 843.5C1020 840.2 1014.2 831.2 1009.3 823.4C1004.3 815.7 999.901 808.4 999.601 807.2C998.701 804.5 994.801 801.8 992.901 802.5C991.601 803 964.101 845.7 957.901 856.9C956.501 859.4 953.601 864.3 951.401 867.7C949.301 871.1 942.401 882.2 936.101 892.3C929.901 902.4 923.901 911.8 922.901 913.1L921.101 915.5L866.601 915.8C832.001 915.9 811.901 915.7 811.501 915.1Z" fill="white"/>
<path d="M749.201 811.6C728.301 806.3 712.901 791.2 707.401 770.8C703.801 757 706.901 739 715.101 726.4C720.001 718.8 729.401 710 735.601 707C747.001 701.7 763.601 700.2 777.001 703.4C786.101 705.5 794.801 710.8 802.301 719C809.101 726.3 812.201 731.7 815.001 740.8C816.901 747.1 817.201 749.8 816.801 759.8C816.401 769.6 815.901 772.6 813.601 778.2C808.201 791.3 793.301 805.2 779.501 810.1C771.901 812.8 756.701 813.5 749.201 811.6Z" fill="white"/>
<path d="M513.5 468.8C513.2 468.1 513.1 442.3 513.2 411.5L513.5 355.5H588.5H663.5L663.8 411.9C664 456.4 663.8 468.5 662.8 469.2C662.1 469.6 628.3 470 587.7 470C529.6 470 513.8 469.7 513.5 468.8Z" fill="white"/>
<path d="M796.5 439.1C789.7 437.9 786.8 435.8 784.1 430.5C781.6 425.8 781.5 424.7 781.2 405.2C780.8 383 781.5 377.7 785.6 372.3C789.5 367.1 795.9 365.6 813 365.6C825.6 365.6 828.1 365.9 832.2 367.7C837.7 370.2 840 374.4 840 382.1V387H836H832V382.8C831.9 376.6 829.7 374.2 822.5 372.9C814.8 371.5 799.6 372.3 794.7 374.3C788.6 376.9 788 379.7 788 402.7C788.1 431.2 788.8 432.2 809.4 432.8C828.5 433.5 831.1 431.9 832.5 418.9C833.5 409.9 833 409.5 820.1 409.5C810.4 409.6 809.9 409.5 809.4 407.3C809.1 406.1 809.1 404.6 809.5 404.1C809.9 403.4 815.6 403 825.1 403H840V414.4C840 429.6 838.3 434.2 831.5 437.8C828.1 439.5 803.6 440.5 796.5 439.1Z" fill="white"/>
<path d="M966.2 439.1C961.1 438.2 957.2 435.5 954.5 430.9C952.6 427.7 952.5 425.7 952.5 397V366.5H956H959.5L960 396.5C960.6 429.8 960.6 430 967 431.9C971.9 433.3 990.5 433.2 995 431.7C1000.9 429.7 1001.4 426.8 1001.6 394.5L1001.8 366.5H1005.6H1009.5V396C1009.4 423.9 1009.3 425.7 1007.3 430.2C1003.9 437.6 999.7 439.3 983.5 439.6C976.4 439.8 968.6 439.5 966.2 439.1Z" fill="white"/>
<path d="M1134 439.4C1128 438.3 1126.9 437.8 1123.6 434.9C1118.2 430.2 1116.8 422.1 1117.2 398.4C1117.6 375.2 1118.3 373.2 1127.4 368.6C1133.1 365.7 1133.8 365.6 1146.9 365.6C1162.2 365.6 1168 366.8 1172.1 370.9C1176.3 375.2 1177.2 379.9 1177.7 399.6C1178.4 425.5 1176.3 433.1 1167.5 437.4C1164.3 439 1161.1 439.4 1150 439.6C1142.6 439.7 1135.4 439.6 1134 439.4ZM1165.6 430.7C1169.4 428.7 1169.7 427.5 1170.6 409.3C1171.5 390.5 1170.6 380.8 1167.4 377.1C1163.5 372.5 1149.2 370.7 1135.3 373.1C1125.5 374.8 1125.5 374.7 1125.5 402C1125.5 428 1126 430.2 1131.8 431.9C1137.8 433.5 1161.9 432.7 1165.6 430.7Z" fill="white"/>
<path d="M867.5 437.7C867.2 437.1 867.1 420.7 867.2 401.5L867.5 366.5L888.7 366.2C907.3 366 910.4 366.2 913.7 367.7C918.8 370.2 921.7 374.8 922.5 382C923.8 393.3 921 402.9 916 404.5C913.3 405.4 913.5 406.3 916.8 408.2C920.7 410.5 922 415.6 922 428.4V439H918.5C916.4 439 915 438.5 915 437.8C915 437.1 914.8 432.2 914.6 427C914.1 410.2 912.2 408.8 890.3 409.2L875.5 409.5L875.2 424.3L874.9 439H871.4C869.5 439 867.7 438.4 867.5 437.7ZM907.1 402C909 401.4 911.7 399.8 913.1 398.4C915.2 396.1 915.5 395 915.5 387.7C915.4 373.5 914 372.7 889.5 373.2L875.5 373.5L875.2 386.9C875.1 394.3 875.2 401 875.4 401.7C876.1 403.3 901.5 403.5 907.1 402Z" fill="white"/>
<path d="M1040.2 402.8L1040.5 366.5L1060 366.2C1081.3 365.9 1085.3 366.5 1089.3 370.9C1092.8 374.7 1094 379.2 1094 388.6C1094 400.3 1092.3 404.2 1085.7 407.5C1080.9 409.9 1079.8 410 1064.3 410H1048V424.5V439H1044H1040L1040.2 402.8ZM1081.9 401.6C1085.6 399.6 1086.4 397 1086.4 387C1086.4 378.7 1085.1 375.4 1081.4 374C1080 373.4 1071.9 373 1063.4 373H1048V387.8C1048 396 1048.3 403 1048.8 403.5C1050.2 404.9 1078.5 403.3 1081.9 401.6Z" fill="white"/>
</g>
<defs>
<clipPath id="clip0_466_2">
<rect width="1280" height="1280" rx="640" fill="white"/>
</clipPath>
</defs>
</svg>
