<svg width="32" height="32" viewBox="0 0 32 32" fill="none" xmlns="http://www.w3.org/2000/svg">
<g clip-path="url(#clip0_464_2)">
<path d="M0 16V0H16H32V16V32H16H0V16ZM7.325 22.9625C7.6625 22.9075 8.2125 22.7825 8.3875 22.7225C9.0525 22.49 9.7875 21.9625 10.13 21.47C10.5125 20.9225 10.6875 20.39 10.6825 19.7875C10.68 19.2175 10.5025 18.7125 10.14 18.2275C10.02 18.0675 9.7425 17.795 9.59 17.6875C9.24 17.4425 9.1525 17.3875 8.92 17.265C8.565 17.0775 7.4275 16.625 7.31 16.625C7.235 16.625 6.285 16.3 6.1375 16.2225C5.9075 16.1025 5.6525 15.9 5.5825 15.7825C5.4375 15.5325 5.495 15.2375 5.7175 15.1075C5.925 14.9875 6.12 14.95 6.555 14.95C6.9625 14.95 7.125 14.9775 7.4375 15.0925C7.65 15.1725 7.66 15.205 7.675 15.77L7.6875 16.2625L8.925 16.27C9.605 16.2725 10.2 16.27 10.245 16.2625L10.33 16.2475L10.32 15.3925C10.3075 14.44 10.2925 14.335 10.115 13.9625C9.975 13.6725 9.7775 13.4675 9.36 13.185C9 12.94 8.3725 12.7025 7.725 12.5675C7.2875 12.475 7.175 12.465 6.5625 12.4625C5.9725 12.4625 5.775 12.4775 5.4625 12.55C5.4075 12.5625 5.285 12.59 5.1875 12.6125C4.8575 12.6875 4.62 12.775 4.1925 12.9725C4 13.0625 3.8475 13.1575 3.5 13.405C3.2875 13.5575 2.8625 14.0775 2.8175 14.2375C2.81 14.265 2.765 14.385 2.715 14.5025C2.315 15.46 2.565 16.67 3.3125 17.4125C3.56 17.66 4.0525 18 4.4775 18.2125C4.6525 18.3025 5.3125 18.575 5.35 18.575C5.3925 18.575 7.0325 19.195 7.175 19.2625C7.3825 19.365 7.5425 19.4925 7.6125 19.61C7.6625 19.6975 7.675 19.75 7.675 19.8975C7.675 20.1 7.6425 20.185 7.5225 20.285C7.26 20.505 6.8325 20.5925 6.15 20.56C5.5775 20.535 5.2475 20.445 4.995 20.245C4.82 20.1075 4.8 20.0325 4.8 19.4825V19H3.475H2.1475L2.1575 19.8325L2.165 20.6625L2.255 20.92C2.4475 21.4625 2.7075 21.8 3.22 22.1575C3.635 22.45 4.315 22.755 4.675 22.81C4.7375 22.82 4.9525 22.8625 5.155 22.9025C5.355 22.9425 5.615 22.985 5.73 22.9975C6.0325 23.0325 7.0375 23.01 7.325 22.9625ZM17.2825 22.74C17.09 22.6475 16.5875 22.3275 16.4 22.18C15.895 21.775 15.595 21.4075 15.335 20.875C14.99 20.1725 14.8925 19.7425 14.8925 18.9375C14.8925 18.2425 14.9125 18.1275 15.2075 17.1125C15.285 16.8525 15.355 16.5925 15.3625 16.5375C15.3775 16.4475 15.4875 16.0175 15.55 15.8C15.565 15.7525 15.655 15.42 15.75 15.0625C16.01 14.1 16.1225 13.685 16.19 13.4625C16.3125 13.04 16.4 12.6925 16.385 12.6775C16.3775 12.67 15.3 12.66 13.9925 12.655C12.08 12.65 11.6 12.655 11.55 12.6825L11.4875 12.715V13.87C11.4875 14.87 11.4925 15.03 11.525 15.05C11.545 15.065 11.8575 15.075 12.2425 15.075C12.89 15.075 12.925 15.0775 12.95 15.1225C12.985 15.19 12.985 20.285 12.95 20.3525C12.925 20.3975 12.89 20.4 12.2925 20.4C11.8325 20.4 11.6525 20.4075 11.63 20.43C11.585 20.475 11.5875 22.79 11.6325 22.8075C11.6475 22.815 12.9675 22.8225 14.5625 22.8225L17.46 22.825L17.2825 22.74ZM22.9975 22.7525C23.0225 22.72 23.1725 22.485 23.3275 22.2325C23.485 21.98 23.66 21.6975 23.72 21.605C23.7775 21.5125 23.8475 21.3975 23.8725 21.35C23.95 21.1975 24.7025 20.0125 24.7325 19.995C24.8 19.9525 24.9525 19.975 25.0125 20.0375C25.0475 20.07 25.075 20.11 25.075 20.1225C25.075 20.1375 25.1775 20.31 25.3025 20.505C25.43 20.7025 25.575 20.93 25.625 21.0125C25.6775 21.095 25.81 21.3075 25.9225 21.4825C26.0325 21.66 26.125 21.81 26.125 21.815C26.125 21.8275 26.6325 22.6275 26.6975 22.7175C26.72 22.7475 26.7625 22.7825 26.795 22.7975C26.8725 22.835 29.7325 22.835 29.8025 22.8C29.8475 22.775 29.85 22.735 29.85 21.6125C29.85 20.49 29.8475 20.45 29.8025 20.425C29.7725 20.41 29.5175 20.4 29.1475 20.4H28.5425L28.4525 20.305C28.4025 20.2525 28.295 20.11 28.215 19.985C28.0275 19.705 27.63 19.125 27.365 18.7525C27.2525 18.595 27.13 18.4125 27.0875 18.3475C27.0475 18.28 26.935 18.115 26.8425 17.9775C26.66 17.7125 26.6175 17.5825 26.675 17.4725C26.7125 17.4 27.23 16.6275 27.5875 16.1125C27.73 15.9075 27.945 15.595 28.0625 15.4175C28.2025 15.2125 28.3 15.095 28.3325 15.0875C28.3625 15.08 28.7 15.0725 29.08 15.07C29.46 15.065 29.7775 15.055 29.785 15.0475C29.805 15.03 29.805 12.6975 29.7875 12.6775C29.7775 12.67 29.075 12.6625 28.2225 12.6625H26.675L26.6125 12.725C26.5575 12.78 26.4975 12.875 26.175 13.4C26.1275 13.475 25.8625 13.905 25.5825 14.3525C25.305 14.8 25.07 15.1875 25.06 15.21C25.0475 15.245 25.0175 15.25 24.9075 15.245L24.77 15.2375L24.535 14.8625C24.23 14.3675 23.875 13.785 23.815 13.675C23.7875 13.6275 23.7075 13.4975 23.6375 13.3875C23.565 13.2775 23.45 13.09 23.38 12.9725C23.3075 12.855 23.23 12.74 23.2075 12.7175C23.1675 12.6825 22.96 12.6775 21.27 12.67C19.85 12.665 19.37 12.67 19.3475 12.6925C19.3325 12.7075 19.2825 12.87 19.235 13.055C19.0975 13.6125 18.8825 14.4525 18.8375 14.6125C18.76 14.8875 18.75 14.9375 18.7275 15.0575C18.705 15.1825 18.71 15.1875 18.815 15.15C18.915 15.11 19.4825 15.05 19.7375 15.05C20.1425 15.0525 20.64 15.1525 20.9725 15.3025C21.06 15.3425 21.1425 15.375 21.1575 15.375C21.195 15.375 21.4675 15.545 21.7025 15.715C22.0375 15.96 22.3625 16.3225 22.6225 16.7425C22.815 17.055 22.91 17.2625 23.02 17.6125C23.1875 18.1475 23.225 18.385 23.225 18.905C23.225 19.375 23.17 19.76 23.05 20.1625C23.02 20.26 22.985 20.38 22.9725 20.435C22.94 20.5625 22.735 20.975 22.595 21.19C22.4125 21.475 22.135 21.8 21.905 22.0075C21.6325 22.2525 21.1575 22.575 20.8625 22.715L20.6375 22.8225L21.795 22.8175L22.9525 22.8125L22.9975 22.7525ZM19.4125 20.175C19.7575 20.0575 20.1325 19.7075 20.2625 19.38C20.3625 19.1375 20.375 18.8425 20.3 18.5975C20.23 18.3675 20.1525 18.2325 19.9825 18.05C19.645 17.685 19.215 17.55 18.745 17.66C18.51 17.715 18.3775 17.7825 18.2075 17.9375C17.8325 18.2775 17.6525 18.785 17.76 19.195C17.875 19.62 18.1625 19.9575 18.5675 20.135C18.8475 20.2575 19.1325 20.2725 19.4125 20.175ZM16.495 11.655C16.52 11.6375 16.525 11.35 16.52 10.2975L16.5125 8.9625H14.7125H12.9125L12.905 10.2875C12.9025 11.0175 12.905 11.6275 12.9125 11.645C12.92 11.6675 13.3 11.675 14.6925 11.675C15.665 11.675 16.4775 11.665 16.495 11.655ZM20.4075 10.9075C20.35 10.9025 20.2475 10.9025 20.1825 10.9075C20.1175 10.9125 20.165 10.915 20.2875 10.915C20.4125 10.915 20.465 10.9125 20.4075 10.9075ZM24.6325 10.9075C24.5725 10.9025 24.4775 10.9025 24.42 10.9075C24.36 10.9125 24.4075 10.9175 24.525 10.9175C24.6425 10.9175 24.69 10.9125 24.6325 10.9075ZM28.8075 10.9075C28.75 10.9025 28.6475 10.9025 28.5825 10.9075C28.5175 10.9125 28.565 10.915 28.6875 10.915C28.8125 10.915 28.865 10.9125 28.8075 10.9075ZM21.8075 10.0625L21.8125 9.2625L22.2625 9.25L22.7125 9.235L22.2375 9.2375H21.7625L21.755 10.0375C21.75 10.75 21.76 10.97 21.79 10.8875C21.7975 10.8725 21.8025 10.5 21.8075 10.0625ZM22.9675 10.5675C22.9625 10.51 22.96 10.565 22.96 10.6875C22.96 10.8125 22.9625 10.8575 22.9675 10.7925C22.9725 10.7275 22.9725 10.625 22.9675 10.5675ZM26.125 10.5325C26.1275 10.3275 26.125 9.9575 26.125 9.7075L26.1225 9.25L26.555 9.2425L26.9875 9.235L26.5375 9.2375H26.0875L26.08 10.07C26.0775 10.6175 26.0825 10.9 26.1 10.9C26.115 10.9 26.125 10.7625 26.125 10.5325ZM25.17 9.9325C25.175 9.585 25.1725 9.2825 25.16 9.2575C25.1475 9.23 25.1325 9.5 25.125 9.925C25.115 10.3175 25.1025 10.66 25.0925 10.6875C25.0825 10.715 25.0925 10.6975 25.1175 10.65C25.15 10.5775 25.16 10.455 25.17 9.9325ZM20.9225 10.37C20.925 10.1625 20.9225 10.15 20.8725 10.15C20.825 10.15 20.825 10.1525 20.865 10.1925C20.9 10.23 20.905 10.27 20.8925 10.4625C20.885 10.5925 20.8875 10.6675 20.9 10.6375C20.9125 10.61 20.9225 10.49 20.9225 10.37ZM23.925 9.95C23.925 9.5 23.915 9.25 23.9 9.25C23.885 9.25 23.875 9.4625 23.875 9.835C23.875 10.3575 23.89 10.65 23.915 10.65C23.92 10.65 23.925 10.335 23.925 9.95ZM29.37 10.0625C29.3725 9.57 29.3575 9.625 29.3425 10.1625C29.3375 10.3975 29.3425 10.555 29.35 10.5125C29.36 10.4725 29.37 10.27 29.37 10.0625ZM28.0475 10.0325C28.0475 9.7175 28.0375 9.5325 28.025 9.5625C27.985 9.655 28 10.55 28.04 10.55C28.045 10.55 28.05 10.3175 28.0475 10.0325ZM19.6175 9.8325C19.615 9.71 19.61 9.81 19.61 10.05C19.61 10.29 19.615 10.39 19.6175 10.27C19.6225 10.1475 19.6225 9.9525 19.6175 9.8325ZM27.2725 9.7025C27.275 9.485 27.26 9.5175 27.2425 9.7625C27.235 9.8775 27.24 9.9425 27.25 9.9125C27.2625 9.885 27.2725 9.79 27.2725 9.7025ZM20.925 9.545C20.925 9.5125 20.9125 9.47 20.9 9.45C20.8825 9.4225 20.875 9.4375 20.875 9.5075C20.875 9.5575 20.8875 9.6 20.9 9.6C20.915 9.6 20.925 9.575 20.925 9.545ZM20.3825 9.2075C20.35 9.2025 20.295 9.2025 20.2575 9.2075C20.2175 9.2125 20.245 9.2175 20.3125 9.2175C20.3825 9.2175 20.4125 9.2125 20.3825 9.2075ZM28.7575 9.2075C28.725 9.2025 28.675 9.2025 28.645 9.2075C28.6125 9.2125 28.6375 9.2175 28.7 9.2175C28.7625 9.2175 28.7875 9.2125 28.7575 9.2075Z" fill="black"/>
<path d="M5.65477 23.0725C5.53977 23.06 5.27977 23.0175 5.07977 22.9775C4.87727 22.9375 4.66227 22.895 4.59977 22.885C4.22727 22.8275 3.54977 22.52 3.11977 22.2125C2.62477 21.86 2.33727 21.49 2.19977 21.025C2.16727 20.9225 2.12727 20.8075 2.10727 20.7675C2.07977 20.7125 2.07227 20.5225 2.07227 19.8175V18.9375L3.47477 18.93L4.87477 18.925V19.405C4.87477 19.9575 4.89477 20.0325 5.06977 20.17C5.30727 20.36 5.58227 20.4425 6.07477 20.475C6.74477 20.52 7.17977 20.4375 7.44727 20.21C7.55227 20.1225 7.59977 20.025 7.59977 19.8975C7.59977 19.6925 7.42727 19.4975 7.09977 19.3375C6.95727 19.27 5.31727 18.65 5.27477 18.65C5.23727 18.65 4.57727 18.3775 4.40227 18.2875C3.97727 18.075 3.48477 17.735 3.23727 17.4875C3.02727 17.28 2.83227 17 2.71727 16.7375C2.50977 16.265 2.44977 15.985 2.44977 15.475C2.44977 15.0625 2.50727 14.745 2.63977 14.4275C2.68977 14.31 2.73477 14.19 2.74227 14.1625C2.78727 14.0025 3.21227 13.4825 3.42477 13.33C3.77227 13.0825 3.92477 12.9875 4.11727 12.8975C4.54477 12.7 4.78227 12.6125 5.11227 12.5375C5.20977 12.515 5.33227 12.4875 5.38727 12.475C5.70477 12.4025 5.89727 12.3875 6.54977 12.3875C7.34227 12.3875 7.54727 12.4125 8.21227 12.5925C8.83227 12.7575 9.24977 12.96 9.71227 13.3125C10.0273 13.555 10.2098 13.835 10.3273 14.2625C10.3798 14.45 10.3848 14.525 10.3948 15.3925L10.4048 16.3225L10.3198 16.3375C10.2748 16.345 9.64727 16.3475 8.92477 16.345L7.61227 16.3375L7.59977 15.845C7.58477 15.28 7.57477 15.2475 7.36227 15.1675C7.06727 15.0575 6.88227 15.025 6.55477 15.025C6.04727 15.025 5.73227 15.1375 5.62727 15.36C5.56477 15.485 5.57227 15.555 5.66227 15.7125C5.72727 15.825 5.98477 16.03 6.21227 16.1475C6.35977 16.225 7.30977 16.55 7.38477 16.55C7.50227 16.55 8.63977 17.0025 8.99477 17.19C9.22727 17.3125 9.31477 17.3675 9.66477 17.6125C9.81727 17.72 10.0948 17.9925 10.2148 18.1525C10.5948 18.66 10.7548 19.1425 10.7598 19.7875C10.7623 20.4675 10.6048 20.975 10.2048 21.545C9.86227 22.0375 9.12727 22.565 8.46227 22.7975C8.28727 22.8575 7.74227 22.9825 7.39977 23.0375C7.11477 23.085 5.96977 23.11 5.65477 23.0725Z" fill="white"/>
<path d="M11.5571 22.8824C11.5121 22.8649 11.5096 20.3999 11.5546 20.3549C11.5771 20.3324 11.7571 20.3249 12.2171 20.3249C12.8146 20.3249 12.8496 20.3224 12.8746 20.2774C12.9096 20.2099 12.9096 15.2649 12.8746 15.1974C12.8496 15.1524 12.8146 15.1499 12.1671 15.1499C11.7821 15.1499 11.4696 15.1399 11.4496 15.1249C11.4171 15.1049 11.4121 14.9374 11.4121 13.8699V12.6399L11.4746 12.6074C11.5246 12.5824 12.0396 12.5749 13.9896 12.5774C15.3571 12.5774 16.4546 12.5874 16.4746 12.5999C16.5171 12.6249 16.4996 12.6974 16.3121 13.3624C16.1771 13.8449 16.0446 14.3274 15.8246 15.1374C15.7296 15.4949 15.6396 15.8274 15.6246 15.8749C15.5621 16.0924 15.4521 16.5224 15.4371 16.6124C15.4296 16.6674 15.3596 16.9274 15.2821 17.1874C14.9946 18.1749 14.9671 18.3249 14.9671 18.9374C14.9696 19.6649 15.0771 20.1199 15.4096 20.7999C15.6696 21.3324 15.9696 21.6999 16.4746 22.1049C16.8121 22.3724 17.5621 22.7999 17.6971 22.7999C17.7496 22.7999 17.8096 22.8574 17.7821 22.8824C17.7646 22.9024 11.6021 22.9024 11.5571 22.8824Z" fill="white"/>
<path d="M20.2865 22.8774C20.2715 22.8499 20.319 22.8199 20.4615 22.7749C20.829 22.6574 21.4415 22.2799 21.829 21.9324C22.059 21.7249 22.3365 21.3974 22.519 21.1149C22.659 20.8999 22.864 20.4874 22.8965 20.3599C22.909 20.3049 22.944 20.1849 22.974 20.0874C23.169 19.4399 23.2015 18.7824 23.0715 18.1374C23.024 17.9074 22.844 17.3649 22.7565 17.1874C22.469 16.6149 22.054 16.1049 21.6265 15.7899C21.3915 15.6199 21.119 15.4499 21.0815 15.4499C21.0665 15.4499 20.984 15.4174 20.8965 15.3774C20.584 15.2374 20.064 15.1249 19.724 15.1249C19.464 15.1274 18.9865 15.1924 18.809 15.2499C18.714 15.2824 18.634 15.2949 18.624 15.2849C18.6115 15.2724 18.6165 15.1749 18.6365 15.0624C18.674 14.8599 18.6865 14.8049 18.7615 14.5374C18.8065 14.3774 19.0215 13.5374 19.159 12.9799C19.2065 12.7949 19.2565 12.6324 19.2715 12.6174C19.294 12.5949 19.794 12.5899 21.2665 12.5924C23.064 12.5999 23.2365 12.6024 23.279 12.6424C23.304 12.6649 23.3815 12.7799 23.454 12.8974C23.524 13.0149 23.639 13.2024 23.7115 13.3124C23.7815 13.4224 23.8615 13.5524 23.889 13.5999C23.9465 13.7099 24.3015 14.2924 24.609 14.7874C24.799 15.0924 24.854 15.1649 24.904 15.1699C24.9465 15.1749 24.974 15.1624 24.984 15.1349C24.994 15.1124 25.229 14.7249 25.5065 14.2774C25.7865 13.8299 26.0515 13.3999 26.099 13.3249C26.4215 12.7999 26.4815 12.7049 26.5365 12.6499L26.599 12.5874H28.2215C29.114 12.5874 29.854 12.5949 29.864 12.6049C29.884 12.6249 29.879 15.1049 29.859 15.1249C29.8515 15.1324 29.534 15.1399 29.154 15.1449C28.774 15.1474 28.4365 15.1549 28.4065 15.1624C28.374 15.1699 28.2765 15.2874 28.1365 15.4924C28.019 15.6699 27.804 15.9824 27.6615 16.1874C27.319 16.6824 26.7865 17.4749 26.754 17.5399C26.7215 17.6049 26.764 17.6899 26.979 17.9999C27.059 18.1174 27.1965 18.3149 27.2815 18.4424C27.3665 18.5699 27.6065 18.9174 27.8115 19.2174C28.019 19.5174 28.244 19.8449 28.3115 19.9474C28.3815 20.0499 28.4765 20.1774 28.5265 20.2299L28.6165 20.3249H29.2215C29.5915 20.3249 29.8465 20.3349 29.8765 20.3499C29.9215 20.3749 29.924 20.4174 29.924 21.6124C29.924 22.8074 29.9215 22.8499 29.8765 22.8749C29.8065 22.9099 26.7965 22.9099 26.719 22.8724C26.6865 22.8574 26.644 22.8224 26.6215 22.7924C26.5565 22.7024 26.049 21.9024 26.049 21.8899C26.049 21.8849 25.9565 21.7349 25.8465 21.5574C25.734 21.3824 25.6015 21.1699 25.549 21.0874C25.499 21.0049 25.354 20.7799 25.2315 20.5849C25.1065 20.3924 24.9965 20.2099 24.989 20.1799C24.9665 20.1124 24.869 20.0449 24.8215 20.0624C24.789 20.0749 24.1015 21.1424 23.9465 21.4224C23.9115 21.4849 23.839 21.6074 23.784 21.6924C23.7315 21.7774 23.559 22.0549 23.4015 22.3074C23.2465 22.5599 23.0965 22.7949 23.0715 22.8274L23.0265 22.8874L21.664 22.8949C20.799 22.8974 20.2965 22.8924 20.2865 22.8774Z" fill="white"/>
<path d="M18.7305 20.29C18.208 20.1575 17.823 19.78 17.6855 19.27C17.5955 18.925 17.673 18.475 17.878 18.16C18.0005 17.97 18.2355 17.75 18.3905 17.675C18.6755 17.5425 19.0905 17.505 19.4255 17.585C19.653 17.6375 19.8705 17.77 20.058 17.975C20.228 18.1575 20.3055 18.2925 20.3755 18.52C20.423 18.6775 20.4305 18.745 20.4205 18.995C20.4105 19.24 20.398 19.315 20.3405 19.455C20.2055 19.7825 19.833 20.13 19.488 20.2525C19.298 20.32 18.918 20.3375 18.7305 20.29Z" fill="white"/>
<path d="M12.8366 11.72C12.8291 11.7025 12.8266 11.0575 12.8291 10.2875L12.8366 8.88745H14.7116H16.5866L16.5941 10.2975C16.5991 11.41 16.5941 11.7125 16.5691 11.73C16.5516 11.74 15.7066 11.75 14.6916 11.75C13.2391 11.75 12.8441 11.7425 12.8366 11.72Z" fill="white"/>
<path d="M19.9123 10.9774C19.7423 10.9474 19.6698 10.8949 19.6023 10.7624C19.5398 10.6449 19.5373 10.6174 19.5298 10.1299C19.5198 9.57489 19.5373 9.44239 19.6398 9.30739C19.7373 9.17739 19.8973 9.13989 20.3248 9.13989C20.6398 9.13989 20.7023 9.14739 20.8048 9.19239C20.9423 9.25489 20.9998 9.35989 20.9998 9.55239V9.67489H20.8998H20.7998V9.56989C20.7973 9.41489 20.7423 9.35489 20.5623 9.32239C20.3698 9.28739 19.9898 9.30739 19.8673 9.35739C19.7148 9.42239 19.6998 9.49239 19.6998 10.0674C19.7023 10.7799 19.7198 10.8049 20.2348 10.8199C20.7123 10.8374 20.7773 10.7974 20.8123 10.4724C20.8373 10.2474 20.8248 10.2374 20.5023 10.2374C20.2598 10.2399 20.2473 10.2374 20.2348 10.1824C20.2273 10.1524 20.2273 10.1149 20.2373 10.1024C20.2473 10.0849 20.3898 10.0749 20.6273 10.0749H20.9998V10.3599C20.9998 10.7399 20.9573 10.8549 20.7873 10.9449C20.7023 10.9874 20.0898 11.0124 19.9123 10.9774Z" fill="white"/>
<path d="M24.155 10.9774C24.0275 10.9549 23.93 10.8874 23.8625 10.7724C23.815 10.6924 23.8125 10.6424 23.8125 9.92485V9.16235H23.9H23.9875L24 9.91235C24.015 10.7449 24.015 10.7499 24.175 10.7974C24.2975 10.8324 24.7625 10.8299 24.875 10.7924C25.0225 10.7424 25.035 10.6699 25.04 9.86235L25.045 9.16235H25.14H25.2375V9.89985C25.235 10.5974 25.2325 10.6424 25.1825 10.7549C25.0975 10.9399 24.9925 10.9824 24.5875 10.9899C24.41 10.9949 24.215 10.9874 24.155 10.9774Z" fill="white"/>
<path d="M28.3493 10.9849C28.1993 10.9574 28.1718 10.9449 28.0893 10.8724C27.9543 10.7549 27.9193 10.5524 27.9293 9.95989C27.9393 9.37989 27.9568 9.32989 28.1843 9.21489C28.3268 9.14239 28.3443 9.13989 28.6718 9.13989C29.0543 9.13989 29.1993 9.16989 29.3018 9.27239C29.4068 9.37989 29.4293 9.49739 29.4418 9.98989C29.4593 10.6374 29.4068 10.8274 29.1868 10.9349C29.1068 10.9749 29.0268 10.9849 28.7493 10.9899C28.5643 10.9924 28.3843 10.9899 28.3493 10.9849ZM29.1393 10.7674C29.2343 10.7174 29.2418 10.6874 29.2643 10.2324C29.2868 9.76239 29.2643 9.51989 29.1843 9.42739C29.0868 9.31239 28.7293 9.26739 28.3818 9.32739C28.1368 9.36989 28.1368 9.36739 28.1368 10.0499C28.1368 10.6999 28.1493 10.7549 28.2943 10.7974C28.4443 10.8374 29.0468 10.8174 29.1393 10.7674Z" fill="white"/>
<path d="M21.6881 10.9424C21.6806 10.9274 21.6781 10.5174 21.6806 10.0374L21.6881 9.16244L22.2181 9.15494C22.6831 9.14994 22.7606 9.15494 22.8431 9.19244C22.9706 9.25494 23.0431 9.36994 23.0631 9.54994C23.0956 9.83244 23.0256 10.0724 22.9006 10.1124C22.8331 10.1349 22.8381 10.1574 22.9206 10.2049C23.0181 10.2624 23.0506 10.3899 23.0506 10.7099V10.9749H22.9631C22.9106 10.9749 22.8756 10.9624 22.8756 10.9449C22.8756 10.9274 22.8706 10.8049 22.8656 10.6749C22.8531 10.2549 22.8056 10.2199 22.2581 10.2299L21.8881 10.2374L21.8806 10.6074L21.8731 10.9749H21.7856C21.7381 10.9749 21.6931 10.9599 21.6881 10.9424ZM22.6781 10.0499C22.7256 10.0349 22.7931 9.99494 22.8281 9.95994C22.8806 9.90244 22.8881 9.87494 22.8881 9.69244C22.8856 9.33744 22.8506 9.31744 22.2381 9.32994L21.8881 9.33744L21.8806 9.67244C21.8781 9.85744 21.8806 10.0249 21.8856 10.0424C21.9031 10.0824 22.5381 10.0874 22.6781 10.0499Z" fill="white"/>
<path d="M26.005 10.0699L26.0125 9.16245L26.5 9.15495C27.0325 9.14745 27.1325 9.16245 27.2325 9.27245C27.32 9.36745 27.35 9.47995 27.35 9.71495C27.35 10.0074 27.3075 10.1049 27.1425 10.1874C27.0225 10.2474 26.995 10.2499 26.6075 10.2499H26.2V10.6124V10.9749H26.1H26L26.005 10.0699ZM27.0475 10.0399C27.14 9.98995 27.16 9.92495 27.16 9.67495C27.16 9.46745 27.1275 9.38495 27.035 9.34995C27 9.33495 26.7975 9.32495 26.585 9.32495H26.2V9.69495C26.2 9.89995 26.2075 10.0749 26.22 10.0874C26.255 10.1224 26.9625 10.0824 27.0475 10.0399Z" fill="white"/>
</g>
<defs>
<clipPath id="clip0_464_2">
<rect width="32" height="32" fill="white"/>
</clipPath>
</defs>
</svg>
