<svg width="512" height="512" viewBox="0 0 512 512" fill="none" xmlns="http://www.w3.org/2000/svg">
<g clip-path="url(#clip0_466_2)">
<path d="M0 256V0H256H512V256V512H256H0V256ZM117.2 367.4C122.6 366.52 131.4 364.52 134.2 363.56C144.84 359.84 156.6 351.4 162.08 343.52C168.2 334.76 171 326.24 170.92 316.6C170.88 307.48 168.04 299.4 162.24 291.64C160.32 289.08 155.88 284.72 153.44 283C147.84 279.08 146.44 278.2 142.72 276.24C137.04 273.24 118.84 266 116.96 266C115.76 266 100.56 260.8 98.2 259.56C94.52 257.64 90.44 254.4 89.32 252.52C87 248.52 87.92 243.8 91.48 241.72C94.8 239.8 97.92 239.2 104.88 239.2C111.4 239.2 114 239.64 119 241.48C122.4 242.76 122.56 243.28 122.8 252.32L123 260.2L142.8 260.32C153.68 260.36 163.2 260.32 163.92 260.2L165.28 259.96L165.12 246.28C164.92 231.04 164.68 229.36 161.84 223.4C159.6 218.76 156.44 215.48 149.76 210.96C144 207.04 133.96 203.24 123.6 201.08C116.6 199.6 114.8 199.44 105 199.4C95.56 199.4 92.4 199.64 87.4 200.8C86.52 201 84.56 201.44 83 201.8C77.72 203 73.92 204.4 67.08 207.56C64 209 61.56 210.52 56 214.48C52.6 216.92 45.8 225.24 45.08 227.8C44.96 228.24 44.24 230.16 43.44 232.04C37.04 247.36 41.04 266.72 53 278.6C56.96 282.56 64.84 288 71.64 291.4C74.44 292.84 85 297.2 85.6 297.2C86.28 297.2 112.52 307.12 114.8 308.2C118.12 309.84 120.68 311.88 121.8 313.76C122.6 315.16 122.8 316 122.8 318.36C122.8 321.6 122.28 322.96 120.36 324.56C116.16 328.08 109.32 329.48 98.4 328.96C89.24 328.56 83.96 327.12 79.92 323.92C77.12 321.72 76.8 320.52 76.8 311.72V304H55.6H34.36L34.52 317.32L34.64 330.6L36.08 334.72C39.16 343.4 43.32 348.8 51.52 354.52C58.16 359.2 69.04 364.08 74.8 364.96C75.8 365.12 79.24 365.8 82.48 366.44C85.68 367.08 89.84 367.76 91.68 367.96C96.52 368.52 112.6 368.16 117.2 367.4ZM276.52 363.84C273.44 362.36 265.4 357.24 262.4 354.88C254.32 348.4 249.52 342.52 245.36 334C239.84 322.76 238.28 315.88 238.28 303C238.28 291.88 238.6 290.04 243.32 273.8C244.56 269.64 245.68 265.48 245.8 264.6C246.04 263.16 247.8 256.28 248.8 252.8C249.04 252.04 250.48 246.72 252 241C256.16 225.6 257.96 218.96 259.04 215.4C261 208.64 262.4 203.08 262.16 202.84C262.04 202.72 244.8 202.56 223.88 202.48C193.28 202.4 185.6 202.48 184.8 202.92L183.8 203.44V221.92C183.8 237.92 183.88 240.48 184.4 240.8C184.72 241.04 189.72 241.2 195.88 241.2C206.24 241.2 206.8 241.24 207.2 241.96C207.76 243.04 207.76 324.56 207.2 325.64C206.8 326.36 206.24 326.4 196.68 326.4C189.32 326.4 186.44 326.52 186.08 326.88C185.36 327.6 185.4 364.64 186.12 364.92C186.36 365.04 207.48 365.16 233 365.16L279.36 365.2L276.52 363.84ZM367.96 364.04C368.36 363.52 370.76 359.76 373.24 355.72C375.76 351.68 378.56 347.16 379.52 345.68C380.44 344.2 381.56 342.36 381.96 341.6C383.2 339.16 395.24 320.2 395.72 319.92C396.8 319.24 399.24 319.6 400.2 320.6C400.76 321.12 401.2 321.76 401.2 321.96C401.2 322.2 402.84 324.96 404.84 328.08C406.88 331.24 409.2 334.88 410 336.2C410.84 337.52 412.96 340.92 414.76 343.72C416.52 346.56 418 348.96 418 349.04C418 349.24 426.12 362.04 427.16 363.48C427.52 363.96 428.2 364.52 428.72 364.76C429.96 365.36 475.72 365.36 476.84 364.8C477.56 364.4 477.6 363.76 477.6 345.8C477.6 327.84 477.56 327.2 476.84 326.8C476.36 326.56 472.28 326.4 466.36 326.4H456.68L455.24 324.88C454.44 324.04 452.72 321.76 451.44 319.76C448.44 315.28 442.08 306 437.84 300.04C436.04 297.52 434.08 294.6 433.4 293.56C432.76 292.48 430.96 289.84 429.48 287.64C426.56 283.4 425.88 281.32 426.8 279.56C427.4 278.4 435.68 266.04 441.4 257.8C443.68 254.52 447.12 249.52 449 246.68C451.24 243.4 452.8 241.52 453.32 241.4C453.8 241.28 459.2 241.16 465.28 241.12C471.36 241.04 476.44 240.88 476.56 240.76C476.88 240.48 476.88 203.16 476.6 202.84C476.44 202.72 465.2 202.6 451.56 202.6H426.8L425.8 203.6C424.92 204.48 423.96 206 418.8 214.4C418.04 215.6 413.8 222.48 409.32 229.64C404.88 236.8 401.12 243 400.96 243.36C400.76 243.92 400.28 244 398.52 243.92L396.32 243.8L392.56 237.8C387.68 229.88 382 220.56 381.04 218.8C380.6 218.04 379.32 215.96 378.2 214.2C377.04 212.44 375.2 209.44 374.08 207.56C372.92 205.68 371.68 203.84 371.32 203.48C370.68 202.92 367.36 202.84 340.32 202.72C317.6 202.64 309.92 202.72 309.56 203.08C309.32 203.32 308.52 205.92 307.76 208.88C305.56 217.8 302.12 231.24 301.4 233.8C300.16 238.2 300 239 299.64 240.92C299.28 242.92 299.36 243 301.04 242.4C302.64 241.76 311.72 240.8 315.8 240.8C322.28 240.84 330.24 242.44 335.56 244.84C336.96 245.48 338.28 246 338.52 246C339.12 246 343.48 248.72 347.24 251.44C352.6 255.36 357.8 261.16 361.96 267.88C365.04 272.88 366.56 276.2 368.32 281.8C371 290.36 371.6 294.16 371.6 302.48C371.6 310 370.72 316.16 368.8 322.6C368.32 324.16 367.76 326.08 367.56 326.96C367.04 329 363.76 335.6 361.52 339.04C358.6 343.6 354.16 348.8 350.48 352.12C346.12 356.04 338.52 361.2 333.8 363.44L330.2 365.16L348.72 365.08L367.24 365L367.96 364.04ZM310.6 322.8C316.12 320.92 322.12 315.32 324.2 310.08C325.8 306.2 326 301.48 324.8 297.56C323.68 293.88 322.44 291.72 319.72 288.8C314.32 282.96 307.44 280.8 299.92 282.56C296.16 283.44 294.04 284.52 291.32 287C285.32 292.44 282.44 300.56 284.16 307.12C286 313.92 290.6 319.32 297.08 322.16C301.56 324.12 306.12 324.36 310.6 322.8ZM263.92 186.48C264.32 186.2 264.4 181.6 264.32 164.76L264.2 143.4H235.4H206.6L206.48 164.6C206.44 176.28 206.48 186.04 206.6 186.32C206.72 186.68 212.8 186.8 235.08 186.8C250.64 186.8 263.64 186.64 263.92 186.48ZM326.52 174.52C325.6 174.44 323.96 174.44 322.92 174.52C321.88 174.6 322.64 174.64 324.6 174.64C326.6 174.64 327.44 174.6 326.52 174.52ZM394.12 174.52C393.16 174.44 391.64 174.44 390.72 174.52C389.76 174.6 390.52 174.68 392.4 174.68C394.28 174.68 395.04 174.6 394.12 174.52ZM460.92 174.52C460 174.44 458.36 174.44 457.32 174.52C456.28 174.6 457.04 174.64 459 174.64C461 174.64 461.84 174.6 460.92 174.52ZM348.92 161L349 148.2L356.2 148L363.4 147.76L355.8 147.8H348.2L348.08 160.6C348 172 348.16 175.52 348.64 174.2C348.76 173.96 348.84 168 348.92 161ZM367.48 169.08C367.4 168.16 367.36 169.04 367.36 171C367.36 173 367.4 173.72 367.48 172.68C367.56 171.64 367.56 170 367.48 169.08ZM418 168.52C418.04 165.24 418 159.32 418 155.32L417.96 148L424.88 147.88L431.8 147.76L424.6 147.8H417.4L417.28 161.12C417.24 169.88 417.32 174.4 417.6 174.4C417.84 174.4 418 172.2 418 168.52ZM402.72 158.92C402.8 153.36 402.76 148.52 402.56 148.12C402.36 147.68 402.12 152 402 158.8C401.84 165.08 401.64 170.56 401.48 171C401.32 171.44 401.48 171.16 401.88 170.4C402.4 169.24 402.56 167.28 402.72 158.92ZM334.76 165.92C334.8 162.6 334.76 162.4 333.96 162.4C333.2 162.4 333.2 162.44 333.84 163.08C334.4 163.68 334.48 164.32 334.28 167.4C334.16 169.48 334.2 170.68 334.4 170.2C334.6 169.76 334.76 167.84 334.76 165.92ZM382.8 159.2C382.8 152 382.64 148 382.4 148C382.16 148 382 151.4 382 157.36C382 165.72 382.24 170.4 382.64 170.4C382.72 170.4 382.8 165.36 382.8 159.2ZM469.92 161C469.96 153.12 469.72 154 469.48 162.6C469.4 166.36 469.48 168.88 469.6 168.2C469.76 167.56 469.92 164.32 469.92 161ZM448.76 160.52C448.76 155.48 448.6 152.52 448.4 153C447.76 154.48 448 168.8 448.64 168.8C448.72 168.8 448.8 165.08 448.76 160.52ZM313.88 157.32C313.84 155.36 313.76 156.96 313.76 160.8C313.76 164.64 313.84 166.24 313.88 164.32C313.96 162.36 313.96 159.24 313.88 157.32ZM436.36 155.24C436.4 151.76 436.16 152.28 435.88 156.2C435.76 158.04 435.84 159.08 436 158.6C436.2 158.16 436.36 156.64 436.36 155.24ZM334.8 152.72C334.8 152.2 334.6 151.52 334.4 151.2C334.12 150.76 334 151 334 152.12C334 152.92 334.2 153.6 334.4 153.6C334.64 153.6 334.8 153.2 334.8 152.72ZM326.12 147.32C325.6 147.24 324.72 147.24 324.12 147.32C323.48 147.4 323.92 147.48 325 147.48C326.12 147.48 326.6 147.4 326.12 147.32ZM460.12 147.32C459.6 147.24 458.8 147.24 458.32 147.32C457.8 147.4 458.2 147.48 459.2 147.48C460.2 147.48 460.6 147.4 460.12 147.32Z" fill="black"/>
<path d="M90.4802 369.16C88.6402 368.96 84.4802 368.28 81.2802 367.64C78.0402 367 74.6002 366.32 73.6002 366.16C67.6402 365.24 56.8002 360.32 49.9202 355.4C42.0002 349.76 37.4002 343.84 35.2002 336.4C34.6802 334.76 34.0402 332.92 33.7202 332.28C33.2802 331.4 33.1602 328.36 33.1602 317.08V303L55.6002 302.88L78.0002 302.8V310.48C78.0002 319.32 78.3202 320.52 81.1202 322.72C84.9202 325.76 89.3202 327.08 97.2002 327.6C107.92 328.32 114.88 327 119.16 323.36C120.84 321.96 121.6 320.4 121.6 318.36C121.6 315.08 118.84 311.96 113.6 309.4C111.32 308.32 85.0802 298.4 84.4002 298.4C83.8002 298.4 73.2402 294.04 70.4402 292.6C63.6402 289.2 55.7602 283.76 51.8002 279.8C48.4402 276.48 45.3202 272 43.4802 267.8C40.1602 260.24 39.2002 255.76 39.2002 247.6C39.2002 241 40.1202 235.92 42.2402 230.84C43.0402 228.96 43.7602 227.04 43.8802 226.6C44.6002 224.04 51.4002 215.72 54.8002 213.28C60.3602 209.32 62.8002 207.8 65.8802 206.36C72.7202 203.2 76.5202 201.8 81.8002 200.6C83.3602 200.24 85.3202 199.8 86.2002 199.6C91.2802 198.44 94.3602 198.2 104.8 198.2C117.48 198.2 120.76 198.6 131.4 201.48C141.32 204.12 148 207.36 155.4 213C160.44 216.88 163.36 221.36 165.24 228.2C166.08 231.2 166.16 232.4 166.32 246.28L166.48 261.16L165.12 261.4C164.4 261.52 154.36 261.56 142.8 261.52L121.8 261.4L121.6 253.52C121.36 244.48 121.2 243.96 117.8 242.68C113.08 240.92 110.12 240.4 104.88 240.4C96.7602 240.4 91.7202 242.2 90.0402 245.76C89.0402 247.76 89.1602 248.88 90.6002 251.4C91.6402 253.2 95.7602 256.48 99.4002 258.36C101.76 259.6 116.96 264.8 118.16 264.8C120.04 264.8 138.24 272.04 143.92 275.04C147.64 277 149.04 277.88 154.64 281.8C157.08 283.52 161.52 287.88 163.44 290.44C169.52 298.56 172.08 306.28 172.16 316.6C172.2 327.48 169.68 335.6 163.28 344.72C157.8 352.6 146.04 361.04 135.4 364.76C132.6 365.72 123.88 367.72 118.4 368.6C113.84 369.36 95.5202 369.76 90.4802 369.16Z" fill="white"/>
<path d="M184.92 366.12C184.2 365.84 184.16 326.4 184.88 325.68C185.24 325.32 188.12 325.2 195.48 325.2C205.04 325.2 205.6 325.16 206 324.44C206.56 323.36 206.56 244.24 206 243.16C205.6 242.44 205.04 242.4 194.68 242.4C188.52 242.4 183.52 242.24 183.2 242C182.68 241.68 182.6 239 182.6 221.92V202.24L183.6 201.72C184.4 201.32 192.64 201.2 223.84 201.24C245.72 201.24 263.28 201.4 263.6 201.6C264.28 202 264 203.16 261 213.8C258.84 221.52 256.72 229.24 253.2 242.2C251.68 247.92 250.24 253.24 250 254C249 257.48 247.24 264.36 247 265.8C246.88 266.68 245.76 270.84 244.52 275C239.92 290.8 239.48 293.2 239.48 303C239.52 314.64 241.24 321.92 246.56 332.8C250.72 341.32 255.52 347.2 263.6 353.68C269 357.96 281 364.8 283.16 364.8C284 364.8 284.96 365.72 284.52 366.12C284.24 366.44 185.64 366.44 184.92 366.12Z" fill="white"/>
<path d="M324.6 366.04C324.36 365.6 325.12 365.12 327.4 364.4C333.28 362.52 343.08 356.48 349.28 350.92C352.96 347.6 357.4 342.36 360.32 337.84C362.56 334.4 365.84 327.8 366.36 325.76C366.56 324.88 367.12 322.96 367.6 321.4C370.72 311.04 371.24 300.52 369.16 290.2C368.4 286.52 365.52 277.84 364.12 275C359.52 265.84 352.88 257.68 346.04 252.64C342.28 249.92 337.92 247.2 337.32 247.2C337.08 247.2 335.76 246.68 334.36 246.04C329.36 243.8 321.04 242 315.6 242C311.44 242.04 303.8 243.08 300.96 244C299.44 244.52 298.16 244.72 298 244.56C297.8 244.36 297.88 242.8 298.2 241C298.8 237.76 299 236.88 300.2 232.6C300.92 230.04 304.36 216.6 306.56 207.68C307.32 204.72 308.12 202.12 308.36 201.88C308.72 201.52 316.72 201.44 340.28 201.48C369.04 201.6 371.8 201.64 372.48 202.28C372.88 202.64 374.12 204.48 375.28 206.36C376.4 208.24 378.24 211.24 379.4 213C380.52 214.76 381.8 216.84 382.24 217.6C383.16 219.36 388.84 228.68 393.76 236.6C396.8 241.48 397.68 242.64 398.48 242.72C399.16 242.8 399.6 242.6 399.76 242.16C399.92 241.8 403.68 235.6 408.12 228.44C412.6 221.28 416.84 214.4 417.6 213.2C422.76 204.8 423.72 203.28 424.6 202.4L425.6 201.4H451.56C465.84 201.4 477.68 201.52 477.84 201.68C478.16 202 478.08 241.68 477.76 242C477.64 242.12 472.56 242.24 466.48 242.32C460.4 242.36 455 242.48 454.52 242.6C454 242.72 452.44 244.6 450.2 247.88C448.32 250.72 444.88 255.72 442.6 259C437.12 266.92 428.6 279.6 428.08 280.64C427.56 281.68 428.24 283.04 431.68 288C432.96 289.88 435.16 293.04 436.52 295.08C437.88 297.12 441.72 302.68 445 307.48C448.32 312.28 451.92 317.52 453 319.16C454.12 320.8 455.64 322.84 456.44 323.68L457.88 325.2H467.56C473.48 325.2 477.56 325.36 478.04 325.6C478.76 326 478.8 326.68 478.8 345.8C478.8 364.92 478.76 365.6 478.04 366C476.92 366.56 428.76 366.56 427.52 365.96C427 365.72 426.32 365.16 425.96 364.68C424.92 363.24 416.8 350.44 416.8 350.24C416.8 350.16 415.32 347.76 413.56 344.92C411.76 342.12 409.64 338.72 408.8 337.4C408 336.08 405.68 332.48 403.72 329.36C401.72 326.28 399.96 323.36 399.84 322.88C399.48 321.8 397.92 320.72 397.16 321C396.64 321.2 385.64 338.28 383.16 342.76C382.6 343.76 381.44 345.72 380.56 347.08C379.72 348.44 376.96 352.88 374.44 356.92C371.96 360.96 369.56 364.72 369.16 365.24L368.44 366.2L346.64 366.32C332.8 366.36 324.76 366.28 324.6 366.04Z" fill="white"/>
<path d="M299.681 324.64C291.321 322.52 285.161 316.48 282.961 308.32C281.521 302.8 282.761 295.6 286.041 290.56C288.001 287.52 291.761 284 294.241 282.8C298.801 280.68 305.441 280.08 310.801 281.36C314.441 282.2 317.921 284.32 320.921 287.6C323.641 290.52 324.881 292.68 326.001 296.32C326.761 298.84 326.881 299.92 326.721 303.92C326.561 307.84 326.361 309.04 325.441 311.28C323.281 316.52 317.321 322.08 311.801 324.04C308.761 325.12 302.681 325.4 299.681 324.64Z" fill="white"/>
<path d="M205.401 187.52C205.281 187.24 205.241 176.92 205.281 164.6L205.401 142.2H235.401H265.401L265.521 164.76C265.601 182.56 265.521 187.4 265.121 187.68C264.841 187.84 251.321 188 235.081 188C211.841 188 205.521 187.88 205.401 187.52Z" fill="white"/>
<path d="M318.601 175.64C315.881 175.16 314.721 174.32 313.641 172.2C312.641 170.32 312.601 169.88 312.481 162.08C312.321 153.2 312.601 151.08 314.241 148.92C315.801 146.84 318.361 146.24 325.201 146.24C330.241 146.24 331.241 146.36 332.881 147.08C335.081 148.08 336.001 149.76 336.001 152.84V154.8H334.401H332.801V153.12C332.761 150.64 331.881 149.68 329.001 149.16C325.921 148.6 319.841 148.92 317.881 149.72C315.441 150.76 315.201 151.88 315.201 161.08C315.241 172.48 315.521 172.88 323.761 173.12C331.401 173.4 332.441 172.76 333.001 167.56C333.401 163.96 333.201 163.8 328.041 163.8C324.161 163.84 323.961 163.8 323.761 162.92C323.641 162.44 323.641 161.84 323.801 161.64C323.961 161.36 326.241 161.2 330.041 161.2H336.001V165.76C336.001 171.84 335.321 173.68 332.601 175.12C331.241 175.8 321.441 176.2 318.601 175.64Z" fill="white"/>
<path d="M386.48 175.64C384.44 175.28 382.88 174.2 381.8 172.36C381.04 171.08 381 170.28 381 158.8V146.6H382.4H383.8L384 158.6C384.24 171.92 384.24 172 386.8 172.76C388.76 173.32 396.2 173.28 398 172.68C400.36 171.88 400.56 170.72 400.64 157.8L400.72 146.6H402.24H403.8V158.4C403.76 169.56 403.72 170.28 402.92 172.08C401.56 175.04 399.88 175.72 393.4 175.84C390.56 175.92 387.44 175.8 386.48 175.64Z" fill="white"/>
<path d="M453.601 175.76C451.201 175.32 450.761 175.12 449.441 173.96C447.281 172.08 446.721 168.84 446.881 159.36C447.041 150.08 447.321 149.28 450.961 147.44C453.241 146.28 453.521 146.24 458.761 146.24C464.881 146.24 467.201 146.72 468.841 148.36C470.521 150.08 470.881 151.96 471.081 159.84C471.361 170.2 470.521 173.24 467.001 174.96C465.721 175.6 464.441 175.76 460.001 175.84C457.041 175.88 454.161 175.84 453.601 175.76ZM466.241 172.28C467.761 171.48 467.881 171 468.241 163.72C468.601 156.2 468.241 152.32 466.961 150.84C465.401 149 459.681 148.28 454.121 149.24C450.201 149.92 450.201 149.88 450.201 160.8C450.201 171.2 450.401 172.08 452.721 172.76C455.121 173.4 464.761 173.08 466.241 172.28Z" fill="white"/>
<path d="M347 175.08C346.88 174.84 346.84 168.28 346.88 160.6L347 146.6L355.48 146.48C362.92 146.4 364.16 146.48 365.48 147.08C367.52 148.08 368.68 149.92 369 152.8C369.52 157.32 368.4 161.16 366.4 161.8C365.32 162.16 365.4 162.52 366.72 163.28C368.28 164.2 368.8 166.24 368.8 171.36V175.6H367.4C366.56 175.6 366 175.4 366 175.12C366 174.84 365.92 172.88 365.84 170.8C365.64 164.08 364.88 163.52 356.12 163.68L350.2 163.8L350.08 169.72L349.96 175.6H348.56C347.8 175.6 347.08 175.36 347 175.08ZM362.84 160.8C363.6 160.56 364.68 159.92 365.24 159.36C366.08 158.44 366.2 158 366.2 155.08C366.16 149.4 365.6 149.08 355.8 149.28L350.2 149.4L350.08 154.76C350.04 157.72 350.08 160.4 350.16 160.68C350.44 161.32 360.6 161.4 362.84 160.8Z" fill="white"/>
<path d="M416.08 161.12L416.2 146.6L424 146.48C432.52 146.36 434.12 146.6 435.72 148.36C437.12 149.88 437.6 151.68 437.6 155.44C437.6 160.12 436.92 161.68 434.28 163C432.36 163.96 431.92 164 425.72 164H419.2V169.8V175.6H417.6H416L416.08 161.12ZM432.76 160.64C434.24 159.84 434.56 158.8 434.56 154.8C434.56 151.48 434.04 150.16 432.56 149.6C432 149.36 428.76 149.2 425.36 149.2H419.2V155.12C419.2 158.4 419.32 161.2 419.52 161.4C420.08 161.96 431.4 161.32 432.76 160.64Z" fill="white"/>
</g>
<defs>
<clipPath id="clip0_466_2">
<rect width="512" height="512" rx="256" fill="white"/>
</clipPath>
</defs>
</svg>
